<?xml version="1.0" encoding="utf-8"?><svg xml:space="preserve" viewBox="0 0 100 100" y="0" x="0" xmlns="http://www.w3.org/2000/svg"  xmlns:xlink="http://www.w3.org/1999/xlink" style="background-size:initial;background-repeat-y:initial;background-repeat-x:initial;background-position-y:initial;background-position-x:initial;background-origin:initial;background-color:initial;background-clip:initial;background-attachment:initial;animation-play-state:paused" ><g class="ldl-scale" style="transform-origin:50% 50%;transform:rotate(0deg) scale(0.95, 0.95);animation-play-state:paused" ><path fill="#d1d1d1" d="M46.195 92.5c-.99 0-1.958-.431-2.622-1.165-1.155-1.277-1.04-2.706-.85-5.073.117-1.459.312-3.39.537-5.625.337-3.342.899-8.921 1.135-13.199-1.046.323-2.162.49-3.329.49-3.65 0-7.382-1.656-9.982-4.428-1.522-1.624-2.55-3.52-3.022-5.528-8.421-1.922-12.806-8.987-12.806-15.644 0-4.485 1.706-8.696 4.843-12.043a18.635 18.635 0 0 1-.095-1.874c0-10.206 8.303-18.509 18.509-18.509 2.76 0 5.443.605 7.899 1.767C49.381 8.991 53.115 7.5 57.013 7.5c6.799 0 12.756 4.392 15.383 11.131 7.175 2.16 12.349 9.445 12.349 17.856 0 3.68-1.002 7.289-2.846 10.325.151 1.004.226 2.023.226 3.044 0 4.835-1.675 9.409-4.718 12.878a3.49 3.49 0 0 1-.531.492c-3.111 2.336-6.311 3.52-9.509 3.52-2.647 0-4.897-.812-6.703-1.864-.904 10.454.303 18.075.852 21.536.341 2.153.547 3.453-.588 4.783a3.572 3.572 0 0 1-3.07 1.221l-11.265.056a3.513 3.513 0 0 1-.398.022z" style="fill:rgb(21, 119, 89);animation-play-state:paused" ></path>
<path fill="#454545" d="M81.242 36.487c0-7.632-5.034-13.928-11.549-14.879-1.663-6.141-6.71-10.606-12.681-10.606-3.961 0-7.513 1.967-9.943 5.083a14.93 14.93 0 0 0-8.557-2.681c-8.288 0-15.007 6.719-15.007 15.007 0 1.074.115 2.121.329 3.13-3.129 2.729-5.077 6.551-5.077 10.786 0 4.867 3.361 11.894 12.525 12.595-.409 6.333 7.073 11.02 12.438 9.044.335-6.401.247-21.799-6.776-35.25 11.725 10.919 11.443 29.835 11.044 35.68-.018 8.179-2.45 25.273-1.754 24.583l11.956-.06c.759.583-2.86-10.681-.592-28.243.458-2 .84-2.43.84-2.43s6.44 9.612 16.337 2.181c2.378-2.713 3.849-6.446 3.849-10.569 0-1.312-.15-2.584-.429-3.797 1.902-2.6 3.047-5.936 3.047-9.574z" style="fill:rgb(83, 171, 139);animation-play-state:paused" ></path>
</svg>